#!OML:ASF X:\für Bonn\!DataBase\2005_08_12_Daniel\c3d\Daniel.ASF
:FULLY-SPECIFIED
:DEGREES
61
root 0.449193 16.507 -0.9682 168.293 -0.984797 -178.857
lowerback 47.6904 -0.627461 11.8
upperback 13.4182 -2.02418 -0.206981
thorax -4.88829 -3.31065 -4.72357
lowerneck 7.97994 -1.35422 -5.61427
upperneck 9.83512 -3.13511 1.86333
head 1.87749 -2.04426 1.55601
rclavicle -1.07344e-014 1.11319e-014
rhumerus 7.64571 -19.9638 -87.6867
rradius 10.9877
rwrist 38.8403
rhand -24.7594 13.4045
rfingers 7.12502
rthumb 1.74397 -16.5681
lclavicle -1.07344e-014 1.11319e-014
lhumerus -27.7833 5.33928 90.8389
lradius 54.6832
lwrist 2.15638
lhand -14.5632 -7.48469
lfingers 7.12502
lthumb 11.586 22.175
rfemur -22.5707 -4.66716 21.6809
rtibia 47.9393
rfoot -14.6474 0.252568
rtoes -8.41924
lfemur -28.4727 5.32731 -16.3709
ltibia 62.1225
lfoot -20.0365 -8.78183
ltoes -16.541
62
root 0.450081 16.4638 -0.981323 168.349 -0.899241 -178.766
lowerback 48.4722 -0.666933 12.0942
upperback 13.4883 -2.0135 -0.188492
thorax -4.90091 -3.35896 -4.8042
lowerneck 7.80855 -1.45647 -5.67953
upperneck 9.57133 -3.2251 1.91891
head 1.82685 -2.07012 1.58561
rclavicle -2.3059e-014 -1.43125e-014
rhumerus 8.71533 -19.5428 -87.8009
rradius 11.1112
rwrist 38.4981
rhand -25.4226 13.6269
rfingers 7.12502
rthumb 1.10338 -16.35
lclavicle -2.3059e-014 -1.43125e-014
lhumerus -27.8136 4.88257 90.8871
lradius 55.6334
lwrist 2.57297
lhand -14.2124 -7.41929
lfingers 7.12502
lthumb 11.9243 22.2211
rfemur -23.093 -4.90582 21.7916
rtibia 48.7837
rfoot -15.0036 0.627706
rtoes -8.44546
lfemur -29.0936 5.41862 -16.4153
ltibia 62.087
lfoot -20.1179 -8.38337
ltoes -16.0158
63
root 0.450198 16.4192 -0.994839 168.409 -0.82152 -178.674
lowerback 49.2597 -0.727513 12.4122
upperback 13.5399 -2.00455 -0.206758
thorax -4.9281 -3.40245 -4.93242
lowerneck 7.60252 -1.57061 -5.63525
upperneck 9.34812 -3.32239 1.93166
head 1.7925 -2.09782 1.58127
rclavicle 2.34566e-014 9.93923e-015
rhumerus 9.72015 -19.08 -87.8973
rradius 11.2645
rwrist 38.1216
rhand -26.0634 13.7988
rfingers 7.12502
rthumb 0.484476 -16.1803
lclavicle 2.34566e-014 9.93923e-015
lhumerus -27.8526 4.37418 90.882
lradius 56.5932
lwrist 2.96737
lhand -13.8358 -7.27114
lfingers 7.12502
lthumb 12.2875 22.3479
rfemur -23.6416 -5.12403 21.9016
rtibia 49.6633
rfoot -15.3853 0.956642
rtoes -8.37279
lfemur -29.7031 5.48521 -16.4486
ltibia 62.165
lfoot -20.3171 -7.98203
ltoes -15.53
64
root 0.44957 16.3703 -1.00932 168.468 -0.728311 -178.585
lowerback 50.0398 -0.781378 12.7132
upperback 13.5778 -1.98552 -0.214513
thorax -4.96125 -3.4414 -5.04422
lowerneck 7.36764 -1.68713 -5.61654
upperneck 9.16258 -3.42687 1.94236
head 1.77625 -2.13175 1.58016
rclavicle 7.55382e-015 5.1684e-015
rhumerus 10.6897 -18.6304 -87.9436
rradius 11.4194
rwrist 37.7444
rhand -26.6778 13.9387
rfingers 7.12502
rthumb -0.108852 -16.041
lclavicle 7.55382e-015 5.1684e-015
lhumerus -27.9161 3.85187 90.871
lradius 57.5375
lwrist 3.37729
lhand -13.4017 -7.16654
lfingers 7.12502
lthumb 12.7059 22.4269
rfemur -24.2167 -5.34205 22.0016
rtibia 50.6061
rfoot -15.8039 1.35312
rtoes -8.35981
lfemur -30.2998 5.57245 -16.4796
ltibia 62.3763
lfoot -20.5687 -7.57527
ltoes -15.0314
65
root 0.448784 16.3171 -1.0241 168.527 -0.624223 -178.499
lowerback 50.7974 -0.813717 13.0024
upperback 13.6399 -1.95585 -0.206912
thorax -4.95563 -3.47788 -5.14022
lowerneck 7.01403 -1.81406 -5.60135
upperneck 9.01314 -3.53547 1.92931
head 1.79173 -2.16724 1.57017
rclavicle -1.35174e-014 -8.34896e-015
rhumerus 11.6401 -17.859 -87.8591
rradius 11.6044
rwrist 36.9459
rhand -27.2536 14.0051
rfingers 7.12502
rthumb -0.664997 -15.9736
lclavicle -1.35174e-014 -8.34896e-015
lhumerus -27.9331 3.36162 90.8826
lradius 58.5061
lwrist 3.75266
lhand -12.8834 -7.12465
lfingers 7.12502
lthumb 13.2056 22.4371
rfemur -24.8297 -5.58137 22.1062
rtibia 51.6054
rfoot -16.2355 1.77141
rtoes -8.35632
lfemur -30.9035 5.7082 -16.5274
ltibia 62.729
lfoot -20.8605 -7.08994
ltoes -14.5807
66
root 0.445532 16.2576 -1.03762 168.575 -0.509674 -178.41
lowerback 51.562 -0.85717 13.2943
upperback 13.6903 -1.93171 -0.200886
thorax -4.95727 -3.51714 -5.2349
lowerneck 6.66091 -1.92393 -5.6076
upperneck 8.89362 -3.62797 1.93549
head 1.81731 -2.1971 1.56981
rclavicle 3.97569e-015 1.39149e-014
rhumerus 12.5841 -17.2998 -87.8077
rradius 11.7931
rwrist 36.4178
rhand -27.7696 14.0322
rfingers 7.12502
rthumb -1.16335 -15.9444
lclavicle 3.97569e-015 1.39149e-014
lhumerus -27.9803 2.86583 90.8711
lradius 59.4797
lwrist 4.12699
lhand -12.334 -7.15828
lfingers 7.12502
lthumb 13.7351 22.3684
rfemur -25.4811 -5.78818 22.2026
rtibia 52.6841
rfoot -16.688 2.16314
rtoes -8.20517
lfemur -31.525 5.89981 -16.596
ltibia 63.2263
lfoot -21.1953 -6.54492
ltoes -14.3365
67
root 0.441594 16.1929 -1.05146 168.627 -0.376634 -178.335
lowerback 52.3221 -0.898746 13.5799
upperback 13.7268 -1.89791 -0.221435
thorax -4.96797 -3.54779 -5.3584
lowerneck 6.32927 -2.04883 -5.58174
upperneck 8.76253 -3.74118 1.94158
head 1.83574 -2.23658 1.56387
rclavicle -1.19271e-015 1.63003e-014
rhumerus 13.4711 -16.7311 -87.7221
rradius 11.9806
rwrist 35.8416
rhand -28.2566 14.0617
rfingers 7.12502
rthumb -1.63378 -15.9118
lclavicle -1.19271e-015 1.63003e-014
lhumerus -28.0802 2.37065 90.8467
lradius 60.4972
lwrist 4.44897
lhand -11.8048 -7.14564
lfingers 7.12502
lthumb 14.2451 22.3458
rfemur -26.1942 -6.00536 22.2917
rtibia 53.8413
rfoot -17.1811 2.6036
rtoes -8.41268
lfemur -32.1832 6.14341 -16.6995
ltibia 63.8734
lfoot -21.5779 -5.92393
ltoes -14.139
68
root 0.43636 16.123 -1.06694 168.689 -0.246423 -178.264
lowerback 53.033 -0.939888 13.8719
upperback 13.7664 -1.85615 -0.243198
thorax -4.96219 -3.57054 -5.49164
lowerneck 6.01057 -2.17471 -5.52685
upperneck 8.63904 -3.85687 1.93252
head 1.8535 -2.27766 1.54774
rclavicle -1.82882e-014 -5.28767e-014
rhumerus 14.3919 -16.52 -87.7162
rradius 12.1008
rwrist 35.6413
rhand -28.7788 14.0891
rfingers 7.12502
rthumb -2.1381 -15.8799
lclavicle -1.82882e-014 -5.28767e-014
lhumerus -28.2024 1.85941 90.8024
lradius 61.54
lwrist 4.78223
lhand -11.2406 -7.21574
lfingers 7.12502
lthumb 14.7887 22.2366
rfemur -26.955 -6.23993 22.3649
rtibia 55.0858
rfoot -17.7166 3.08579
rtoes -8.30462
lfemur -32.8654 6.39647 -16.8211
ltibia 64.6637
lfoot -22.0442 -5.28626
ltoes -13.945
69
root 0.431694 16.0474 -1.08294 168.749 -0.117068 -178.209
lowerback 53.7136 -0.956819 14.1133
upperback 13.805 -1.80698 -0.240192
thorax -4.95082 -3.59181 -5.5796
lowerneck 5.70487 -2.29387 -5.48323
upperneck 8.55756 -3.96948 1.88302
head 1.88181 -2.32112 1.52013
rclavicle 5.56597e-015 -1.55052e-014
rhumerus 15.2588 -16.1595 -87.6023
rradius 12.2572
rwrist 35.3096
rhand -29.165 14.0426
rfingers 7.12502
rthumb -2.51103 -15.9224
lclavicle 5.56597e-015 -1.55052e-014
lhumerus -28.3608 1.39527 90.7741
lradius 62.5941
lwrist 5.01982
lhand -10.7485 -7.33859
lfingers 7.12502
lthumb 15.2628 22.0783
rfemur -27.7666 -6.46913 22.4307
rtibia 56.4052
rfoot -18.2965 3.54642
rtoes -8.31456
lfemur -33.5782 6.67787 -16.9625
ltibia 65.5712
lfoot -22.5374 -4.66016
ltoes -13.8312
70
root 0.425266 15.9601 -1.10168 168.788 -0.00182621 -178.123
lowerback 54.3871 -1.01485 14.4275
upperback 13.832 -1.75919 -0.260903
thorax -4.94138 -3.60718 -5.72384
lowerneck 5.54548 -2.421 -5.42637
upperneck 8.37685 -4.10137 1.87537
head 1.85419 -2.37239 1.50611
rclavicle 9.54166e-015 8.74653e-015
rhumerus 16.1089 -16.0052 -87.5335
rradius 12.3619
rwrist 35.1079
rhand -29.5569 14.0172
rfingers 7.12502
rthumb -2.88955 -15.943
lclavicle 9.54166e-015 8.74653e-015
lhumerus -28.5415 0.897335 90.7315
lradius 63.6888
lwrist 5.2259
lhand -10.28 -7.38537
lfingers 7.12502
lthumb 15.714 21.9966
rfemur -28.6094 -6.72068 22.5149
rtibia 57.808
rfoot -18.9237 4.01592
rtoes -8.41354
lfemur -34.3286 6.94474 -17.0722
ltibia 66.6096
lfoot -23.0423 -4.0482
ltoes -13.5439
71
root 0.419407 15.875 -1.11985 168.85 0.0704346 -178.066
lowerback 55.0127 -1.07478 14.6967
upperback 13.8389 -1.71724 -0.281116
thorax -4.9506 -3.62018 -5.84631
lowerneck 5.49128 -2.5419 -5.33793
upperneck 8.18226 -4.23414 1.86683
head 1.80311 -2.4254 1.48781
rclavicle 3.49861e-014 1.35174e-014
rhumerus 16.9218 -16.0977 -87.5447
rradius 12.4522
rwrist 35.2438
rhand -29.909 13.959
rfingers 7.12502
rthumb -3.2296 -15.9963
lclavicle 3.49861e-014 1.35174e-014
lhumerus -28.7941 0.395364 90.6823
lradius 64.8296
lwrist 5.46125
lhand -9.88742 -7.41519
lfingers 7.12502
lthumb 16.0921 21.9367
rfemur -29.4783 -7.07995 22.5586
rtibia 59.2325
rfoot -19.5618 4.53453
rtoes -8.53709
lfemur -35.0994 7.16717 -17.2055
ltibia 67.6977
lfoot -23.5502 -3.51007
ltoes -13.3488
72
root 0.413572 15.7861 -1.13965 168.886 0.0899817 -178.027
lowerback 55.6585 -1.16973 14.9456
upperback 13.8075 -1.70257 -0.309264
thorax -5.00586 -3.64417 -5.95313
lowerneck 5.49771 -2.6423 -5.21548
upperneck 8.01002 -4.34485 1.81312
head 1.7457 -2.46997 1.44987
rclavicle -2.94201e-014 -1.63003e-014
rhumerus 17.7 -16.2167 -87.5506
rradius 12.4778
rwrist 35.4263
rhand -30.2312 13.8935
rfingers 7.12502
rthumb -3.54075 -16.0568
lclavicle -2.94201e-014 -1.63003e-014
lhumerus -29.0836 -0.00663313 90.6204
lradius 65.9234
lwrist 5.50541
lhand -9.5666 -7.53937
lfingers 7.12502
lthumb 16.401 21.7872
rfemur -30.3429 -7.45602 22.5662
rtibia 60.7042
rfoot -20.2121 5.04012
rtoes -8.49672
lfemur -35.857 7.32111 -17.3439
ltibia 68.8454
lfoot -24.0012 -3.04237
ltoes -12.9979
73
root 0.407195 15.6934 -1.1612 168.946 0.0852484 -177.996
lowerback 56.2466 -1.2717 15.1981
upperback 13.7761 -1.68649 -0.327206
thorax -5.05183 -3.66317 -6.05337
lowerneck 5.4825 -2.74987 -5.15828
upperneck 7.85088 -4.47003 1.81643
head 1.70031 -2.52296 1.44148
rclavicle -1.82882e-014 -1.90833e-014
rhumerus 18.4391 -16.4482 -87.5512
rradius 12.5133
rwrist 35.7235
rhand -30.5026 13.8741
rfingers 7.12502
rthumb -3.80279 -16.0717
lclavicle -1.82882e-014 -1.90833e-014
lhumerus -29.3493 -0.424884 90.5944
lradius 67.0334
lwrist 5.52192
lhand -9.38801 -7.4907
lfingers 7.12502
lthumb 16.5729 21.8216
rfemur -31.2361 -7.85069 22.5579
rtibia 62.1921
rfoot -20.8749 5.55441
rtoes -8.25985
lfemur -36.6408 7.41075 -17.4637
ltibia 70.0312
lfoot -24.4325 -2.70007
ltoes -12.5541
